<svg width="87" height="86" viewBox="0 0 87 86" fill="none" xmlns="http://www.w3.org/2000/svg">
<path d="M21.8664 28.0906C23.1159 28.7153 23.6223 30.2347 22.9976 31.4841L21.2835 34.9123L26.3423 39.9712L22.9976 46.6606C22.3728 47.9101 20.8535 48.4165 19.604 47.7918C18.3545 47.1671 17.8481 45.6477 18.4728 44.3982L20.1869 40.97L15.1281 35.9112L18.4728 29.2218C19.0976 27.9723 20.6169 27.4658 21.8664 28.0906Z" fill="#793282"/>
<path fill-rule="evenodd" clip-rule="evenodd" d="M35.9118 0H5.55882V15.1765H0.5V45.5294C0.5 51.1508 3.55334 56.051 8.08824 58.6739V73.3529C8.08824 80.3377 13.7505 86 20.7353 86C27.7201 86 33.3824 80.3377 33.3824 73.3529V58.6739C37.9172 56.051 40.9706 51.1508 40.9706 45.5294V15.1765H35.9118V0ZM30.8529 25.2941H10.6176V45.5294C10.6176 47.8797 12.225 49.8673 14.408 50.4292L18.2059 51.4067V73.3529C18.2059 74.7499 19.3383 75.8824 20.7353 75.8824C22.1322 75.8824 23.2647 74.7499 23.2647 73.3529V51.4067L27.0626 50.4292C29.2456 49.8673 30.8529 47.8797 30.8529 45.5294V25.2941ZM25.7941 15.1765V10.1176H15.6765V15.1765H25.7941Z" fill="#793282"/>
<path d="M66.2647 25.2941C64.8678 25.2941 63.7353 26.4266 63.7353 27.8235V30.3529H61.2059C59.8089 30.3529 58.6765 31.4854 58.6765 32.8824C58.6765 34.2793 59.8089 35.4118 61.2059 35.4118H63.7353V37.9412C63.7353 39.3381 64.8678 40.4706 66.2647 40.4706C67.6617 40.4706 68.7941 39.3381 68.7941 37.9412V35.4118H71.3235C72.7205 35.4118 73.8529 34.2793 73.8529 32.8824C73.8529 31.4854 72.7205 30.3529 71.3235 30.3529H68.7941V27.8235C68.7941 26.4266 67.6617 25.2941 66.2647 25.2941Z" fill="#793282"/>
<path d="M73.8529 68.2941C73.8529 66.8972 72.7205 65.7647 71.3235 65.7647H61.2059C59.8089 65.7647 58.6765 66.8972 58.6765 68.2941C58.6765 69.6911 59.8089 70.8235 61.2059 70.8235H71.3235C72.7205 70.8235 73.8529 69.6911 73.8529 68.2941Z" fill="#793282"/>
<path fill-rule="evenodd" clip-rule="evenodd" d="M53.6225 12.9646C53.6193 12.8591 53.6176 12.7533 53.6176 12.6471V10.1176C53.6176 4.52982 58.1475 0 63.7353 0H68.7941C74.3819 0 78.9118 4.52983 78.9118 10.1176V12.6471C78.9118 12.7533 78.9101 12.8591 78.9069 12.9646C83.2732 14.086 86.5 18.0485 86.5 22.7647V75.8824C86.5 81.4702 81.9702 86 76.3824 86H56.1471C50.5592 86 46.0294 81.4702 46.0294 75.8824V22.7647C46.0294 18.0485 49.2562 14.086 53.6225 12.9646ZM63.7353 10.1176H68.7941V12.6471H63.7353V10.1176ZM76.3824 75.8824V22.7647H56.1471V75.8824H76.3824Z" fill="#793282"/>
</svg>
