<svg width="60" height="60" viewBox="0 0 60 60" fill="none" xmlns="http://www.w3.org/2000/svg">
<path fill-rule="evenodd" clip-rule="evenodd" d="M52.9412 13.2353C52.9412 20.0576 47.4106 25.5882 40.5882 25.5882C33.7659 25.5882 28.2353 20.0576 28.2353 13.2353C28.2353 6.41292 33.7659 0.882324 40.5882 0.882324C47.4106 0.882324 52.9412 6.41292 52.9412 13.2353ZM45.8824 13.2353C45.8824 16.1591 43.5121 18.5294 40.5882 18.5294C37.6644 18.5294 35.2941 16.1591 35.2941 13.2353C35.2941 10.3114 37.6644 7.94115 40.5882 7.94115C43.5121 7.94115 45.8824 10.3114 45.8824 13.2353Z" fill="#0E0E0E"/>
<path fill-rule="evenodd" clip-rule="evenodd" d="M16.7647 32.647C22.1251 32.647 26.4706 28.3016 26.4706 22.9411C26.4706 17.5807 22.1251 13.2353 16.7647 13.2353C11.4043 13.2353 7.05882 17.5807 7.05882 22.9411C7.05882 28.3016 11.4043 32.647 16.7647 32.647ZM16.7647 25.5882C18.2266 25.5882 19.4118 24.4031 19.4118 22.9411C19.4118 21.4792 18.2266 20.2941 16.7647 20.2941C15.3028 20.2941 14.1176 21.4792 14.1176 22.9411C14.1176 24.4031 15.3028 25.5882 16.7647 25.5882Z" fill="#0E0E0E"/>
<path d="M27.8352 34.0117C31.9699 29.8769 37.0406 29.1176 40.5882 29.1176C44.1359 29.1176 49.2066 29.8769 53.3413 34.0117C57.4587 38.1291 60 44.9452 60 55.5882C60 57.5374 58.4198 59.1176 56.4706 59.1176C54.5213 59.1176 52.9412 57.5374 52.9412 55.5882C52.9412 45.9371 50.6295 41.2826 48.3499 39.003C46.0876 36.7406 43.217 36.1764 40.5882 36.1764C37.9594 36.1764 35.0889 36.7406 32.8266 39.003C30.547 41.2826 28.2353 45.9371 28.2353 55.5882C28.2353 57.5374 26.6551 59.1176 24.7059 59.1176C22.7566 59.1176 21.1765 57.5374 21.1765 55.5882C21.1765 44.9452 23.7178 38.1291 27.8352 34.0117Z" fill="#0E0E0E"/>
<path d="M17.6471 34.4117C14.126 34.4117 9.56139 35.1576 5.88245 38.5423C2.1525 41.9738 0 47.4944 0 55.5882C0 57.5374 1.58017 59.1176 3.52941 59.1176C5.47865 59.1176 7.05882 57.5374 7.05882 55.5882C7.05882 48.682 8.87691 45.3791 10.6617 43.7371C12.4974 42.0482 14.9916 41.4706 17.6471 41.4706C19.5963 41.4706 21.1765 39.8904 21.1765 37.9411C21.1765 35.9919 19.5963 34.4117 17.6471 34.4117Z" fill="#0E0E0E"/>
</svg>
