<svg width="34" height="34" viewBox="0 0 34 34" fill="none" xmlns="http://www.w3.org/2000/svg">
<path d="M5.05258 2.00264C6.37555 0.476134 8.15604 0 10.0015 0H24.0013C25.8467 0 27.6272 0.476134 28.9502 2.00264C30.1696 3.40964 30.7263 5.41405 30.9891 7.77914C31.2379 10.0184 31.6116 13.1332 31.9871 16.2617L31.9893 16.2806C32.3632 19.3958 32.7384 22.523 32.9892 24.7791C33.3454 27.9833 32.9035 30.5624 31.108 32.2196C29.4102 33.7868 27.0211 34 25.0014 34H17.0014V30H25.0014C26.9817 30 27.926 29.7132 28.395 29.2804C28.7663 28.9376 29.3244 28.0167 29.0137 25.2209C28.7648 22.9822 28.3912 19.8682 28.0158 16.7403L28.0156 16.7383C27.641 13.6168 27.2647 10.4816 27.0135 8.22086C26.7763 6.08595 26.333 5.09036 25.9274 4.62236C25.6254 4.27387 25.1559 4 24.0013 4H10.0015C8.84687 4 8.37736 4.27387 8.07533 4.62236C7.66974 5.09036 7.22644 6.08595 6.98922 8.22086C6.73803 10.4816 6.3618 13.6168 5.98721 16.7383L5.98697 16.7403C5.61162 19.8681 5.23793 22.9822 4.98908 25.2209C4.67833 28.0167 5.23649 28.9376 5.60779 29.2804C6.07672 29.7132 7.02109 30 9.00138 30H17.0014V34H9.00138C6.98166 34 4.59254 33.7868 2.89472 32.2196C1.09927 30.5624 0.657415 27.9833 1.01357 24.7791C1.26434 22.5229 1.6396 19.3958 2.01344 16.2806L2.0157 16.2617C2.39113 13.1332 2.76488 10.0184 3.01369 7.77914C3.27648 5.41405 3.83317 3.40964 5.05258 2.00264Z" fill="#313131"/>
<path d="M13.0013 8C13.0013 6.89543 12.1059 6 11.0013 6C9.89676 6 9.00132 6.89543 9.00132 8C9.00132 12.4183 12.5831 16 17.0013 16C21.4196 16 25.0013 12.4183 25.0013 8C25.0013 6.89543 24.1059 6 23.0013 6C21.8968 6 21.0013 6.89543 21.0013 8C21.0013 10.2091 19.2105 12 17.0013 12C14.7922 12 13.0013 10.2091 13.0013 8Z" fill="#313131"/>
</svg>
