<svg width="26" height="26" viewBox="0 0 26 26" fill="none" xmlns="http://www.w3.org/2000/svg">
<path fill-rule="evenodd" clip-rule="evenodd" d="M0 1.52941C0 0.684741 0.684741 0 1.52941 0H6.11765C6.96232 0 7.64706 0.684741 7.64706 1.52941V6.11765C7.64706 6.96232 6.96232 7.64706 6.11765 7.64706H1.52941C0.684741 7.64706 0 6.96232 0 6.11765V1.52941ZM3.05882 4.58824V3.05882H4.58824V4.58824H3.05882Z" fill="white"/>
<path d="M9.17647 3.82353C9.17647 2.97886 9.86121 2.29412 10.7059 2.29412H24.4706C25.3153 2.29412 26 2.97886 26 3.82353C26 4.6682 25.3153 5.35294 24.4706 5.35294H10.7059C9.86121 5.35294 9.17647 4.6682 9.17647 3.82353Z" fill="white"/>
<path fill-rule="evenodd" clip-rule="evenodd" d="M0 10.7059C0 9.86121 0.684741 9.17647 1.52941 9.17647H6.11765C6.96232 9.17647 7.64706 9.86121 7.64706 10.7059V15.2941C7.64706 16.1388 6.96232 16.8235 6.11765 16.8235H1.52941C0.684741 16.8235 0 16.1388 0 15.2941V10.7059ZM3.05882 13.7647V12.2353H4.58824V13.7647H3.05882Z" fill="white"/>
<path d="M9.17647 13C9.17647 12.1553 9.86121 11.4706 10.7059 11.4706H24.4706C25.3153 11.4706 26 12.1553 26 13C26 13.8447 25.3153 14.5294 24.4706 14.5294H10.7059C9.86121 14.5294 9.17647 13.8447 9.17647 13Z" fill="white"/>
<path fill-rule="evenodd" clip-rule="evenodd" d="M0 19.8824C0 19.0377 0.684741 18.3529 1.52941 18.3529H6.11765C6.96232 18.3529 7.64706 19.0377 7.64706 19.8824V24.4706C7.64706 25.3153 6.96232 26 6.11765 26H1.52941C0.684741 26 0 25.3153 0 24.4706V19.8824ZM3.05882 22.9412V21.4118H4.58824V22.9412H3.05882Z" fill="white"/>
<path d="M10.7059 20.6471C9.86121 20.6471 9.17647 21.3318 9.17647 22.1765C9.17647 23.0211 9.86121 23.7059 10.7059 23.7059H24.4706C25.3153 23.7059 26 23.0211 26 22.1765C26 21.3318 25.3153 20.6471 24.4706 20.6471H10.7059Z" fill="white"/>
</svg>
