<svg width="19" height="18" viewBox="0 0 19 18" fill="none" xmlns="http://www.w3.org/2000/svg">
<path d="M13.0845 8.99968L8.59233 4.50748C8.17884 4.09398 8.17884 3.42357 8.59233 3.01007C9.00583 2.59658 9.67624 2.59658 10.0897 3.01007L16.0793 8.99968L10.0897 14.9893C9.67624 15.4028 9.00583 15.4028 8.59233 14.9893C8.17884 14.5758 8.17884 13.9054 8.59233 13.4919L13.0845 8.99968Z" fill="#793282"/>
<path d="M7.79042 8.99968L3.29821 4.50748C2.88472 4.09398 2.88472 3.42357 3.29821 3.01007C3.71171 2.59658 4.38212 2.59658 4.79562 3.01007L10.7852 8.99968L4.79562 14.9893C4.38212 15.4028 3.71171 15.4028 3.29821 14.9893C2.88472 14.5758 2.88472 13.9054 3.29821 13.4919L7.79042 8.99968Z" fill="#793282"/>
</svg>
