<svg width="87" height="86" viewBox="0 0 87 86" fill="none" xmlns="http://www.w3.org/2000/svg">
<path d="M25.7941 40.4159C23.0002 40.4159 20.7353 42.6809 20.7353 45.4748V65.7101C20.7353 68.504 23.0002 70.7689 25.7941 70.7689C28.588 70.7689 30.8529 68.504 30.8529 65.7101V45.4748C30.8529 42.6809 28.588 40.4159 25.7941 40.4159Z" fill="#793282"/>
<path fill-rule="evenodd" clip-rule="evenodd" d="M25.7941 10.1176V25.2941H10.6176C5.02983 25.2941 0.5 29.8239 0.5 35.4118V75.8824C0.5 81.4702 5.02982 86 10.6176 86H40.9706C46.5584 86 51.0882 81.4702 51.0882 75.8824V0H35.9118C30.3239 0 25.7941 4.52982 25.7941 10.1176ZM40.9706 10.1176H35.9118V15.1765L40.9706 15.1765V10.1176ZM40.9706 20.2353L35.9118 20.2353V25.2941H40.9706V20.2353ZM40.9706 35.4118V75.8824H10.6176L10.6176 35.4118H40.9706Z" fill="#793282"/>
<path fill-rule="evenodd" clip-rule="evenodd" d="M58.6765 15.1765V0H83.9706V15.1765H86.5V75.8824C86.5 81.4702 81.9702 86 76.3824 86H66.2647C60.6769 86 56.1471 81.4702 56.1471 75.8824V15.1765H58.6765ZM68.7941 10.1176H73.8529V15.1765H68.7941V10.1176ZM66.2647 25.2395H76.3824V30.2983H66.2647V25.2395ZM66.2647 40.4159H76.3824V75.8277H66.2647V40.4159Z" fill="#793282"/>
</svg>
