<svg width="180" height="210" viewBox="0 0 180 210" fill="none" xmlns="http://www.w3.org/2000/svg">
<path fill-rule="evenodd" clip-rule="evenodd" d="M117.145 126.104C119.198 120.628 125.301 117.854 130.777 119.908C148.037 126.38 180 150.907 180 198.645C180 204.493 175.259 209.233 169.412 209.233C163.564 209.233 158.824 204.493 158.824 198.645C158.824 161.677 134.316 143.851 123.341 139.736C117.866 137.682 115.091 131.579 117.145 126.104ZM59.4772 121.491C56.0646 118.813 51.3589 118.487 47.6061 120.676C30.6642 130.558 18.5213 141.643 10.7266 154.894C2.90101 168.198 0 182.764 0 198.645C0 204.493 4.74051 209.233 10.5882 209.233C16.436 209.233 21.1765 204.493 21.1765 198.645C21.1765 185.409 23.5696 174.828 28.9793 165.631C33.7308 157.554 41.2228 149.843 52.9182 142.26C54.4858 143.095 56.3249 143.989 58.4279 144.874C63.7729 147.125 70.8184 149.319 79.4118 150.364V188.057C79.4118 193.905 84.1523 198.645 90 198.645C95.8477 198.645 100.588 193.905 100.588 188.057V140.41C100.588 137.602 99.4727 134.908 97.487 132.923C95.5013 130.937 92.8082 129.822 90 129.822C79.6898 129.822 71.8194 127.536 66.6456 125.357C64.0517 124.265 62.133 123.198 60.9307 122.458C60.3303 122.089 59.9115 121.803 59.6796 121.638C59.5691 121.56 59.5014 121.51 59.4772 121.491Z" fill="#313131"/>
<path fill-rule="evenodd" clip-rule="evenodd" d="M90 92.7628C101.695 92.7628 111.176 83.2818 111.176 71.5863C111.176 59.8909 101.695 50.4099 90 50.4099C78.3046 50.4099 68.8235 59.8909 68.8235 71.5863C68.8235 83.2818 78.3046 92.7628 90 92.7628ZM90 113.939C113.391 113.939 132.353 94.9772 132.353 71.5863C132.353 48.1955 113.391 29.2334 90 29.2334C66.6091 29.2334 47.6471 48.1955 47.6471 71.5863C47.6471 94.9772 66.6091 113.939 90 113.939Z" fill="#313131"/>
<path d="M152.425 43.6374L151.996 47.3047L152.425 43.6374C148.184 43.1418 144.345 46.1777 143.85 50.4182C143.354 54.6588 146.39 58.4982 150.63 58.9937L160.062 60.0959C164.302 60.5915 168.142 57.5556 168.637 53.3151L164.793 52.8657L168.637 53.3151C169.133 49.0745 166.097 45.2351 161.856 44.7396L152.425 43.6374ZM135.035 22.4978L131.062 22.0335L135.035 22.4978L136.137 13.0663C136.633 8.82579 133.597 4.98641 129.357 4.49084C125.116 3.99527 121.277 7.03117 120.781 11.2717L119.679 20.7032C119.183 24.9437 122.219 28.7831 126.46 29.2787C130.7 29.7743 134.54 26.7383 135.035 22.4978ZM158.311 22.0457C155.663 18.6968 150.801 18.1286 147.452 20.7767L140.004 26.6664C136.655 29.3145 136.087 34.1761 138.735 37.525C141.383 40.8739 146.244 41.4421 149.593 38.794L157.042 32.9043C160.391 30.2562 160.959 25.3946 158.311 22.0457Z" fill="#A84FB4" stroke="#313131" stroke-width="8"/>
</svg>
