<svg width="20" height="20" viewBox="0 0 20 20" fill="none" xmlns="http://www.w3.org/2000/svg">
<path d="M17.0712 2.92893C16.6117 2.46949 15.8668 2.46949 15.4074 2.92893L10.0001 8.33622L4.59283 2.92893C4.13339 2.46949 3.38849 2.46949 2.92905 2.92893C2.46961 3.38837 2.46961 4.13327 2.92905 4.59271L8.33634 10L2.92905 15.4073C2.46961 15.8667 2.46961 16.6116 2.92905 17.0711C3.38849 17.5305 4.13339 17.5305 4.59283 17.0711L10.0001 11.6638L15.4074 17.0711C15.8668 17.5305 16.6117 17.5305 17.0712 17.0711C17.5306 16.6116 17.5306 15.8667 17.0712 15.4073L11.6639 10L17.0712 4.59271C17.5306 4.13327 17.5306 3.38837 17.0712 2.92893Z" fill="#313131"/>
</svg>
