<svg width="87" height="86" viewBox="0 0 87 86" fill="none" xmlns="http://www.w3.org/2000/svg">
<path fill-rule="evenodd" clip-rule="evenodd" d="M35.9118 5.05882C35.9118 2.26491 38.1767 0 40.9706 0H76.3824C79.1763 0 81.4412 2.26491 81.4412 5.05882C81.4412 7.85273 79.1763 10.1176 76.3824 10.1176H71.3235V12.6471H81.4412C84.2351 12.6471 86.5 14.912 86.5 17.7059C86.5 20.4998 84.2351 22.7647 81.4412 22.7647H76.3824V60.7059C76.3824 64.8207 73.926 68.3617 70.3997 69.9427L69.2495 81.4445C68.9909 84.0306 66.8148 86 64.2158 86H53.1368C50.5379 86 48.3617 84.0306 48.1031 81.4445L46.9529 69.9426C43.4268 68.3615 40.9706 64.8205 40.9706 60.7059V22.7647H35.9118C33.1179 22.7647 30.8529 20.4998 30.8529 17.7059C30.8529 14.912 33.1179 12.6471 35.9118 12.6471H46.0294V10.1176L40.9706 10.1176C38.1767 10.1176 35.9118 7.85273 35.9118 5.05882ZM56.1471 12.6471H61.2059V10.1176L56.1471 10.1176V12.6471ZM51.0882 22.7647V60.7059H66.2647V55.6471H58.6765C57.2795 55.6471 56.1471 54.5146 56.1471 53.1176C56.1471 51.7207 57.2795 50.5882 58.6765 50.5882H66.2647V48.0588H63.7353C62.3383 48.0588 61.2059 46.9264 61.2059 45.5294C61.2059 44.1325 62.3383 43 63.7353 43H66.2647V40.4706H58.6765C57.2795 40.4706 56.1471 39.3381 56.1471 37.9412C56.1471 36.5442 57.2795 35.4118 58.6765 35.4118H66.2647V32.8824H63.7353C62.3383 32.8824 61.2059 31.7499 61.2059 30.3529C61.2059 28.956 62.3383 27.8235 63.7353 27.8235H66.2647V22.7647H51.0882ZM57.715 75.8824L57.2091 70.8235H60.1435L59.6376 75.8824H57.715Z" fill="#793282"/>
<path fill-rule="evenodd" clip-rule="evenodd" d="M7.24152 19.7689C7.48246 17.1668 9.6656 15.1765 12.2788 15.1765H24.1331C26.7463 15.1765 28.9295 17.1668 29.1704 19.7689L30.2457 31.3824C33.6016 33.0292 35.9118 36.4801 35.9118 40.4706V43C35.9118 45.9474 34.6515 48.6004 32.6404 50.4496C34.7003 53.3434 35.9118 56.8832 35.9118 60.7059V75.8824C35.9118 81.4702 31.3819 86 25.7941 86H10.6176C5.02982 86 0.5 81.4702 0.5 75.8824V60.7059C0.5 56.8832 1.71144 53.3434 3.77134 50.4496C1.76028 48.6004 0.5 45.9474 0.5 43V40.4706C0.5 36.4801 2.81024 33.0291 6.16621 31.3823L7.24152 19.7689ZM16.6567 27.8235L16.8909 25.2941H19.5211L19.7553 27.8235H16.6567ZM25.7941 40.4706H10.6176L10.6176 43H25.7941V40.4706ZM19.3597 59.8606C17.371 58.6595 15.0879 57.2806 11.9316 56.4367C13.2975 54.4331 15.5981 53.1176 18.2059 53.1176C22.3967 53.1176 25.7941 56.515 25.7941 60.7059V62.7416C23.292 62.1818 21.6063 61.2098 19.8601 60.1621C19.6957 60.0635 19.528 59.9622 19.3597 59.8606ZM14.6546 68.8379C17.44 70.5091 20.6888 72.2893 25.7941 73.0154V75.8824H10.6176L10.6176 66.6442C11.8095 67.1254 12.9058 67.7854 14.2204 68.5768L14.6546 68.8379Z" fill="#793282"/>
</svg>
