<svg width="180" height="195" viewBox="0 0 180 195" fill="none" xmlns="http://www.w3.org/2000/svg">
<path d="M24.4127 28.8295C29.4096 20.9656 37.2083 17.5822 45.6271 16.3267L109.495 6.80253C117.913 5.54709 126.36 6.50794 133.434 12.5718C139.954 18.1611 143.857 26.9264 146.665 37.5372C149.324 47.5834 153.148 61.5391 156.989 75.5559L157.012 75.6404C160.836 89.5976 164.676 103.609 167.355 113.73C171.159 128.106 170.898 140.172 163.835 148.954C157.156 157.259 146.401 159.857 137.187 161.231L100.692 166.673L97.9703 148.425L134.466 142.983C143.5 141.635 147.613 139.685 149.458 137.391C150.919 135.575 152.839 130.994 149.519 118.451C146.861 108.407 143.038 94.4549 139.197 80.4411L139.195 80.4319C135.362 66.4464 131.513 52.3997 128.829 42.257C126.295 32.6788 123.595 28.4385 121.426 26.5794C119.811 25.1951 117.483 24.2651 112.216 25.0506L48.3483 34.5748C43.0811 35.3602 41.1255 36.929 39.9847 38.7243C38.4528 41.1353 37.1077 45.9788 37.478 55.8796C37.87 66.3641 38.2865 80.9227 38.7012 95.418L38.7015 95.4274C39.117 109.952 39.5307 124.412 39.9185 134.795C40.4029 147.761 43.5757 151.582 45.5027 152.893C47.9365 154.549 52.4398 155.215 61.4739 153.867L97.9703 148.425L100.692 166.673L64.1951 172.115C54.9811 173.489 43.9369 174.142 35.1253 168.148C25.807 161.809 22.0367 150.343 21.4816 135.484C21.0907 125.02 20.6753 110.499 20.2615 96.0332L20.2589 95.9456C19.8433 81.418 19.4293 66.9538 19.041 56.569C18.6309 45.6007 19.8069 36.0779 24.4127 28.8295Z" fill="#313131"/>
<path d="M64.755 50.782C64.0035 45.7429 59.3094 42.2671 54.2704 43.0186C49.2313 43.77 45.7555 48.4641 46.5069 53.5032C49.5127 73.6594 68.2893 87.5626 88.4455 84.5568C108.602 81.5511 122.505 62.7745 119.499 42.6183C118.748 37.5793 114.054 34.1035 109.014 34.8549C103.975 35.6063 100.5 40.3005 101.251 45.3395C102.754 55.4177 95.8024 64.8059 85.7243 66.3088C75.6462 67.8117 66.2579 60.8601 64.755 50.782Z" fill="#313131"/>
<path d="M134.264 189.528L119.446 129.761L175.054 154.987L159.141 164.38L172.063 180.016L160.387 190.674L147.205 174.634L134.264 189.528Z" fill="#A84FB4"/>
<path d="M114.185 123.79C113.578 124.297 113.133 124.971 112.908 125.73C112.682 126.488 112.685 127.296 112.916 128.052L130.254 191.215C131.188 194.265 135.133 195.067 137.182 192.622L146.769 181.183L154.167 189.99C158.42 195.054 165.066 194.491 170.129 190.237C175.194 185.983 176.897 179.536 172.643 174.472L165.272 165.696L177.991 158.346C180.753 156.75 180.645 152.728 177.802 151.281L118.583 123.291C117.882 122.935 117.091 122.792 116.31 122.881C115.528 122.97 114.789 123.286 114.185 123.79ZM123.374 134.75L167.551 155.09L152.943 163.531L153.035 163.632L166.484 179.645C167.962 181.404 166.716 182.601 164.957 184.079C163.197 185.556 161.803 186.576 160.326 184.817L146.877 168.804L146.768 168.662L135.778 181.776L123.374 134.75Z" fill="#313131"/>
<path d="M93.9346 99.8498C92.364 101.183 92.1716 103.537 93.505 105.108L99.6503 112.347C100.984 113.918 103.338 114.11 104.908 112.777C106.479 111.443 106.671 109.089 105.338 107.518L99.1927 100.279C97.8594 98.7088 95.5052 98.5164 93.9346 99.8498Z" fill="#313131"/>
<path d="M82.6543 122.537C82.4866 124.59 84.0152 126.391 86.0686 126.559L95.5327 127.332C97.5861 127.5 99.3868 125.971 99.5546 123.918C99.7224 121.864 98.1937 120.064 96.1403 119.896L86.6762 119.123C84.6228 118.955 82.8221 120.483 82.6543 122.537Z" fill="#313131"/>
<path d="M96.6185 146.505C95.0479 147.838 92.6937 147.646 91.3604 146.075C90.027 144.505 90.2194 142.151 91.79 140.817L99.029 134.672C100.6 133.339 102.954 133.531 104.287 135.102C105.62 136.672 105.428 139.026 103.857 140.36L96.6185 146.505Z" fill="#313131"/>
<path d="M139.401 110.186C140.972 108.853 141.164 106.498 139.831 104.928C138.498 103.357 136.144 103.165 134.573 104.498L127.334 110.643C125.763 111.977 125.571 114.331 126.904 115.902C128.238 117.472 130.592 117.665 132.162 116.331L139.401 110.186Z" fill="#313131"/>
<path d="M121.432 96.5378C121.6 94.4844 120.071 92.6837 118.018 92.5159C115.965 92.3481 114.164 93.8767 113.996 95.9302L113.223 105.394C113.055 107.448 114.584 109.248 116.637 109.416C118.69 109.584 120.491 108.055 120.659 106.002L121.432 96.5378Z" fill="#313131"/>
</svg>
