<svg width="18" height="18" viewBox="0 0 18 18" fill="none" xmlns="http://www.w3.org/2000/svg">
<path d="M18 3.70578C18 4.87533 17.0519 5.82343 15.8824 5.82343C14.7128 5.82343 13.7647 4.87533 13.7647 3.70578C13.7647 2.53624 14.7128 1.58813 15.8824 1.58813C17.0519 1.58813 18 2.53624 18 3.70578Z" fill="#313131"/>
<path d="M0 3.70578C0 3.12101 0.474052 2.64696 1.05882 2.64696H11.1176C11.7024 2.64696 12.1765 3.12101 12.1765 3.70578C12.1765 4.29055 11.7024 4.76461 11.1176 4.76461H1.05882C0.474051 4.76461 0 4.29055 0 3.70578Z" fill="#313131"/>
<path d="M6.88235 8.9999C6.88235 10.1694 5.93425 11.1175 4.76471 11.1175C3.98088 11.1175 3.29651 10.6917 2.93036 10.0587H1.05882C0.474051 10.0587 0 9.58467 0 8.9999C0 8.41513 0.474052 7.94108 1.05882 7.94108H2.93036C3.29651 7.30811 3.98088 6.88225 4.76471 6.88225C5.93425 6.88225 6.88235 7.83036 6.88235 8.9999Z" fill="#313131"/>
<path d="M8.47059 8.9999C8.47059 8.41513 8.94464 7.94108 9.52941 7.94108H16.9412C17.5259 7.94108 18 8.41513 18 8.9999C18 9.58467 17.5259 10.0587 16.9412 10.0587H9.52941C8.94464 10.0587 8.47059 9.58467 8.47059 8.9999Z" fill="#313131"/>
<path d="M11.1176 14.294C11.1176 15.4636 12.0658 16.4117 13.2353 16.4117C14.0191 16.4117 14.7035 15.9858 15.0696 15.3528H16.9412C17.5259 15.3528 18 14.8788 18 14.294C18 13.7092 17.5259 13.2352 16.9412 13.2352H15.0696C14.7035 12.6022 14.0191 12.1764 13.2353 12.1764C12.0658 12.1764 11.1176 13.1245 11.1176 14.294Z" fill="#313131"/>
<path d="M9.52941 14.294C9.52941 13.7092 9.05536 13.2352 8.47059 13.2352H1.05882C0.474052 13.2352 0 13.7092 0 14.294C0 14.8788 0.474052 15.3528 1.05882 15.3528H8.47059C9.05536 15.3528 9.52941 14.8788 9.52941 14.294Z" fill="#313131"/>
</svg>
