<svg width="87" height="86" viewBox="0 0 87 86" fill="none" xmlns="http://www.w3.org/2000/svg">
<path fill-rule="evenodd" clip-rule="evenodd" d="M21.241 15.1765L31.8633 1.8986C32.8234 0.698571 34.2768 0 35.8136 0H51.1861C52.7229 0 54.1764 0.698572 55.1364 1.8986L65.7587 15.1765H68.794C71.588 15.1765 73.8529 17.4414 73.8529 20.2353V32.8824C73.8529 34.933 72.6327 36.6987 70.8787 37.493C72.7652 40.5684 73.8529 44.1866 73.8529 48.0588V75.8824C73.8529 81.4702 69.323 86 63.7352 86H23.2646C17.6768 86 13.147 81.4702 13.147 75.8824V48.0588C13.147 44.1866 14.2346 40.5684 16.1211 37.493C14.3672 36.6987 13.147 34.933 13.147 32.8824V20.2353C13.147 17.4414 15.4119 15.1765 18.2058 15.1765H21.241ZM34.1979 15.1765L38.245 10.1176H48.7547L52.8018 15.1765H34.1979ZM23.2646 25.2941V27.8235H63.7352V25.2941H23.2646ZM23.5663 45.5967C24.6659 41.1988 28.6437 37.9412 33.3823 37.9412H53.6176C59.2054 37.9412 63.7352 42.471 63.7352 48.0588V53.0854C53.1515 52.8107 46.5934 50.8309 40.4191 48.9669C35.2461 47.4052 30.3425 45.9248 23.5663 45.5967ZM23.2646 55.6799L23.2646 75.8824H63.7352V63.2024C54.0063 62.9433 48.7531 61.1922 43.4999 59.4412C38.2467 57.6901 32.9935 55.9391 23.2646 55.6799Z" fill="#793282"/>
</svg>
