<svg width="1080" height="489" viewBox="0 0 1080 489" fill="none" xmlns="http://www.w3.org/2000/svg">
<path fill-rule="evenodd" clip-rule="evenodd" d="M557.722 203.094C506.128 145.895 522.433 136.827 535.653 68.4726C528.29 118.214 541.982 140.77 574.851 185.87C609.863 233.909 608.642 256.749 590.93 302.633C593.834 294.04 609.316 260.29 557.722 203.094ZM540.067 202.882C605.254 274.758 590.962 272.314 551.207 384C563.581 343.502 575.562 303.708 505.809 256.987C436.055 210.267 455.017 167.319 485.001 120.25C514.985 73.1809 533.925 37.0093 539.227 0C530.005 87.9836 474.249 129.322 540.067 202.882Z" fill="#0E0E0E"/>
<path opacity="0.5" fill-rule="evenodd" clip-rule="evenodd" d="M558.319 202.473C608.915 262.691 594.085 293.236 591.077 302.04C605.217 264.016 600.897 240.579 565.881 192.539C533.017 147.439 532.839 174.536 558.319 202.473Z" fill="url(#paint0_linear_14_199)"/>
<path opacity="0.5" fill-rule="evenodd" clip-rule="evenodd" d="M564.657 193.584C525.907 145.518 527.083 137.942 535.655 68.4725C528.292 118.214 541.984 140.77 574.853 185.87C609.862 233.909 583.575 217.252 564.657 193.584Z" fill="url(#paint1_linear_14_199)"/>
<path opacity="0.5" fill-rule="evenodd" clip-rule="evenodd" d="M505.83 256.986C575.584 303.707 563.602 343.501 551.227 383.999C581.256 292.102 577.952 292.088 512.765 220.209C446.947 146.654 458.727 223.228 505.83 256.986Z" fill="url(#paint2_linear_14_199)"/>
<path opacity="0.5" fill-rule="evenodd" clip-rule="evenodd" d="M540.081 202.882C474.262 129.322 530.018 87.9836 539.24 0C533.939 37.0093 520.499 75.0899 491.316 136.734C467.425 187.206 498.662 215.596 532.72 238.387C602.498 285.078 557.84 219.955 540.081 202.882Z" fill="url(#paint3_linear_14_199)"/>
<path fill-rule="evenodd" clip-rule="evenodd" d="M515.477 323.552C470.502 263.311 529.794 223.221 565.916 178.79C600.037 136.821 585.538 105.841 574.889 75.8583C581.011 91.0461 594.157 105.17 610.26 124.265C646.749 171.634 589.838 212.041 553.19 239.172C516.542 266.302 495.482 295.673 515.477 323.555V323.552ZM574.892 75.8583C574.192 74.1337 573.583 72.3738 573.065 70.5858C573.652 72.3407 574.264 74.0982 574.892 75.8583ZM607.866 201.95C585.166 232.195 571.857 245.254 548.524 265.891C510.865 295.604 524.84 319.915 528.341 343.755C523.157 318.573 496.829 294.967 542.843 259.221C576.738 233.103 580.374 233.319 607.866 201.95Z" fill="#793282"/>
<path opacity="0.8" fill-rule="evenodd" clip-rule="evenodd" d="M548.515 265.887C510.857 295.601 524.833 319.911 528.333 343.752C523.149 318.57 504.997 295.356 546.577 261.422C580.469 235.31 554.032 261.826 548.515 265.887Z" fill="url(#paint4_linear_14_199)"/>
<path opacity="0.8" fill-rule="evenodd" clip-rule="evenodd" d="M553.198 239.172C516.55 266.302 495.484 295.673 515.479 323.555C478.511 270.601 539.885 237.17 576.01 192.739C612.134 148.307 589.644 213.067 553.198 239.172Z" fill="url(#paint5_linear_14_199)"/>
<path opacity="0.8" fill-rule="evenodd" clip-rule="evenodd" d="M551.836 221.48C588.469 194.353 602.986 171.543 604.706 152.484C605.634 123.005 595.212 130.51 573.063 70.5858C583.664 102.237 602.042 134.362 565.92 178.79C529.798 223.218 535.708 233.269 551.836 221.48Z" fill="url(#paint6_linear_14_199)"/>
<path fill-rule="evenodd" clip-rule="evenodd" d="M64.9027 455.78C62.6865 452.939 60.3115 449.893 60.3115 445.244C60.3115 441.057 61.1892 436.965 68.5571 428.982C64.5275 421.574 65.8354 414.249 68.2764 408.071C66.6548 416.526 68.5114 421.904 71.2589 426.091C79.1097 416.435 74.6575 408.435 72.1462 405.302C68.4203 400.655 65.8344 393.586 72.1462 384C67.0924 394.276 72.7995 400.635 76.0911 403.971C81.972 409.932 84.2138 417.842 76.0911 430.599C75.9327 430.848 75.7762 431.093 75.6218 431.335C75.5859 431.392 75.5501 431.448 75.5144 431.504C79.5902 436.619 80.9349 442.489 76.0497 454.533C76.0634 454.543 76.0772 454.553 76.0911 454.564C83.5364 460.218 83.5662 467.678 81.653 471.782L139.009 420.814H154.442L78.4071 488.779H64.2478V473.204L64.2568 473.203C71.4995 464.24 68.3988 460.264 64.9027 455.78ZM71.0132 449.664C72.3601 445.65 72.8704 441.177 72.093 437.045C69.1587 442.168 68.2177 445.723 71.0132 449.664Z" fill="#0E0E0E"/>
<path fill-rule="evenodd" clip-rule="evenodd" d="M418.366 429.278C434.513 429.278 447.956 431.292 458.695 435.314C469.44 439.336 474.809 444.377 474.809 450.441C474.809 456.505 469.39 461.519 458.549 465.492C447.706 469.464 433.294 471.452 417.544 471.452C401.794 471.452 388.671 469.466 378.182 465.492C367.688 461.521 362.447 456.702 362.447 450.559C362.447 444.416 367.726 439.336 378.294 435.314C388.857 431.292 402.219 429.278 418.366 429.278ZM418.515 466.036C430.172 466.036 439.898 464.533 447.7 461.532H447.698C455.498 458.531 459.396 454.674 459.396 450.319C459.396 445.965 455.498 442.3 447.698 439.327C439.898 436.357 430.914 434.87 418.958 434.87C407.001 434.87 397.173 436.341 389.477 439.282C381.778 442.229 377.932 446.123 377.932 450.557C377.932 454.991 381.791 458.678 389.514 461.621C397.235 464.564 406.857 466.036 418.515 466.036Z" fill="#0E0E0E"/>
<path fill-rule="evenodd" clip-rule="evenodd" d="M126.053 470.982L173.764 429.631H184.939L234.747 470.982H218.469L203.664 458.798H156.273L142.393 470.982H126.053ZM179.207 438.669L162.586 453.558H197.126L179.207 438.669Z" fill="#0E0E0E"/>
<path fill-rule="evenodd" clip-rule="evenodd" d="M313.402 429.809C323.195 429.809 331.004 430.869 336.834 432.986L336.832 432.984C342.662 435.105 345.57 437.952 345.57 441.519C345.57 443.915 344.078 446.032 341.092 447.879C338.105 449.722 334.02 451.062 328.828 451.893C324.946 452.52 319.803 452.908 313.402 453.065V453.144H268.146V470.98H253.382V429.809H313.402ZM311.713 447.908C317.689 447.908 322.29 447.343 325.521 446.216H325.519C328.751 445.089 330.369 443.476 330.369 441.372C330.369 437.159 323.855 435.046 310.83 435.046H268.146V447.908H311.713Z" fill="#0E0E0E"/>
<path fill-rule="evenodd" clip-rule="evenodd" d="M788.186 433.299C777.449 429.274 764.002 427.265 747.855 427.265C731.708 427.265 718.346 429.276 707.783 433.299C697.215 437.318 691.932 442.401 691.932 448.54C691.932 454.679 697.175 459.506 707.665 463.479C718.161 467.453 731.281 469.437 747.029 469.437C762.777 469.437 777.195 467.455 788.04 463.479C798.879 459.506 804.296 454.488 804.296 448.424C804.296 442.36 798.929 437.318 788.186 433.299ZM777.187 459.519C769.389 462.52 759.661 464.023 748.002 464.023C736.342 464.023 726.724 462.551 719.003 459.606C711.278 456.663 707.417 452.976 707.417 448.542C707.417 444.108 711.261 440.214 718.966 437.273C726.662 434.33 736.492 432.859 748.45 432.859C760.408 432.859 769.389 434.344 777.185 437.316C784.985 440.289 788.883 443.95 788.883 448.304C788.883 452.659 784.985 456.514 777.185 459.519H777.187Z" fill="#0E0E0E"/>
<path d="M549.002 446.873L532.747 444.213C525.455 443.029 520.163 441.902 516.868 440.827C513.578 439.754 511.935 438.6 511.935 437.366C511.935 435.981 514.166 434.842 518.636 433.953C523.108 433.065 528.814 432.619 535.763 432.619C548.104 432.619 559.629 434.046 570.343 436.892V430.213C559.985 428.289 548.601 427.323 536.191 427.323C523.78 427.323 512.663 428.334 504.544 430.351C496.418 432.371 492.356 435.005 492.356 438.24C492.356 440.398 494.504 442.31 498.797 443.965C503.086 445.622 510.302 447.307 520.444 449.022L536.616 451.74C549.664 453.985 556.193 456.356 556.193 458.862C556.193 460.405 553.974 461.687 549.549 462.716C545.111 463.744 539.557 464.255 532.891 464.255C517.783 464.255 504.486 462.244 492.996 458.216V465.691C505.05 468.188 518.422 469.435 533.103 469.435C545.872 469.435 556.247 468.406 564.226 466.345C572.203 464.286 576.19 461.604 576.19 458.309C576.19 453.682 567.127 449.871 549.002 446.873Z" fill="#0E0E0E"/>
<path d="M586.931 435.585H627.855V468.965H645.036V435.585H686.646V427.794H586.931V435.585Z" fill="#0E0E0E"/>
<path d="M951.753 463.667V450.895H1016.5V445.63H951.753V433.091H1018.3V427.852H933.797V468.905H1020V463.667H951.753Z" fill="#0E0E0E"/>
<path fill-rule="evenodd" clip-rule="evenodd" d="M913.073 461.207C908.868 457.499 905.608 454.896 903.291 453.407C901.24 452.088 899.142 451.029 897.007 450.201C897.815 450.101 898.597 449.998 899.322 449.88C904.51 449.045 908.601 447.709 911.586 445.862C914.575 444.017 916.066 441.898 916.066 439.506C916.066 435.935 913.159 433.089 907.326 430.969C901.498 428.852 893.686 427.793 883.893 427.793H823.877V468.963H838.642V451.129H874.699C880.264 451.194 882.556 452.306 884.347 453.175L884.35 453.177L884.356 453.18C884.48 453.24 884.602 453.299 884.722 453.357C884.846 453.416 884.969 453.474 885.091 453.529C890.559 456.008 899.788 463.858 903.72 468.642C903.923 468.886 904.119 468.961 904.119 468.961H919.413C919.413 468.391 915.715 463.537 913.071 461.203L913.073 461.207ZM882.214 445.889H838.643V433.031H881.328C894.353 433.031 900.866 435.14 900.866 439.357C900.866 441.459 899.246 443.07 896.019 444.197C892.787 445.328 888.18 445.887 882.212 445.887L882.214 445.889Z" fill="#0E0E0E"/>
<defs>
<linearGradient id="paint0_linear_14_199" x1="1220.58" y1="383.674" x2="1220.58" y2="0.323732" gradientUnits="userSpaceOnUse">
<stop stop-color="#00FEFF"/>
<stop offset="0.43" stop-color="#00FEFF" stop-opacity="0"/>
<stop offset="1" stop-color="#00FEFF" stop-opacity="0"/>
</linearGradient>
<linearGradient id="paint1_linear_14_199" x1="1220.14" y1="0.323611" x2="1220.14" y2="383.674" gradientUnits="userSpaceOnUse">
<stop stop-color="#00FEFF"/>
<stop offset="0.412" stop-color="#00FEFF" stop-opacity="0"/>
<stop offset="1" stop-color="#00FEFF" stop-opacity="0"/>
</linearGradient>
<linearGradient id="paint2_linear_14_199" x1="1220.17" y1="383.674" x2="1220.17" y2="0.323634" gradientUnits="userSpaceOnUse">
<stop stop-color="#00FEFF"/>
<stop offset="0.296" stop-color="#00FEFF" stop-opacity="0"/>
<stop offset="1" stop-color="#00FEFF" stop-opacity="0"/>
</linearGradient>
<linearGradient id="paint3_linear_14_199" x1="1220.16" y1="0.323641" x2="1220.16" y2="383.674" gradientUnits="userSpaceOnUse">
<stop stop-color="#00FEFF"/>
<stop offset="0.516" stop-color="#00FEFF" stop-opacity="0"/>
<stop offset="1" stop-color="#00FEFF" stop-opacity="0"/>
</linearGradient>
<linearGradient id="paint4_linear_14_199" x1="1220.14" y1="383.674" x2="1220.14" y2="0.323757" gradientUnits="userSpaceOnUse">
<stop stop-color="#B1FF00"/>
<stop offset="0.318" stop-color="#B1FF00" stop-opacity="0"/>
<stop offset="1" stop-color="#B1FF00" stop-opacity="0"/>
</linearGradient>
<linearGradient id="paint5_linear_14_199" x1="1220.15" y1="383.674" x2="1220.15" y2="0.323645" gradientUnits="userSpaceOnUse">
<stop stop-color="#B1FF00"/>
<stop offset="0.329" stop-color="#B1FF00" stop-opacity="0"/>
<stop offset="1" stop-color="#B1FF00" stop-opacity="0"/>
</linearGradient>
<linearGradient id="paint6_linear_14_199" x1="1220.14" y1="0.32365" x2="1220.14" y2="383.674" gradientUnits="userSpaceOnUse">
<stop stop-color="#B1FF00"/>
<stop offset="0.064" stop-color="#B1FF00"/>
<stop offset="0.389" stop-color="#B1FF00" stop-opacity="0"/>
<stop offset="1" stop-color="#B1FF00" stop-opacity="0"/>
</linearGradient>
</defs>
</svg>
