<svg width="60" height="60" viewBox="0 0 60 60" fill="none" xmlns="http://www.w3.org/2000/svg">
<path fill-rule="evenodd" clip-rule="evenodd" d="M10.5882 7.05882C10.5882 3.16034 13.7486 0 17.6471 0H42.3529C46.2514 0 49.4118 3.16034 49.4118 7.05882V8.82353H52.9412C56.8397 8.82353 60 11.9839 60 15.8824V52.9412C60 56.8397 56.8397 60 52.9412 60H35.2941V40.5882C35.2941 39.6136 34.504 38.8235 33.5294 38.8235H26.4706C25.496 38.8235 24.7059 39.6136 24.7059 40.5882V60H7.05882C3.16034 60 0 56.8397 0 52.9412V15.8824C0 11.9839 3.16034 8.82353 7.05882 8.82353H10.5882V7.05882ZM17.6471 7.05882H42.3529V17.6471H17.6471V7.05882ZM10.5882 15.8824H7.05882V52.9412H17.6471V40.5882C17.6471 35.7151 21.5975 31.7647 26.4706 31.7647H33.5294C38.4025 31.7647 42.3529 35.7151 42.3529 40.5882V52.9412H52.9412V15.8824H49.4118V17.6471C49.4118 21.5455 46.2514 24.7059 42.3529 24.7059H17.6471C13.7486 24.7059 10.5882 21.5455 10.5882 17.6471V15.8824Z" fill="#0E0E0E"/>
</svg>
