<svg width="34" height="34" viewBox="0 0 34 34" fill="none" xmlns="http://www.w3.org/2000/svg">
<path d="M14.9995 5.9998C14.4472 5.9998 13.9995 6.4475 13.9995 6.99977C13.9995 7.55204 14.4472 7.99974 14.9995 7.99974C17.6799 7.99974 19.3905 9.09827 20.4567 10.4844C21.5539 11.9108 21.9993 13.6882 21.9993 14.9995C21.9993 15.5518 22.447 15.9995 22.9992 15.9995C23.5515 15.9995 23.9992 15.5518 23.9992 14.9995C23.9992 13.311 23.4446 11.0885 22.0419 9.26498C20.6082 7.40119 18.3189 5.9998 14.9995 5.9998Z" fill="#313131"/>
<path fill-rule="evenodd" clip-rule="evenodd" d="M14.9995 29.999C18.4205 29.999 21.574 28.8538 24.0975 26.9258L30.5859 33.4142C31.3669 34.1952 32.6332 34.1952 33.4142 33.4142C34.1953 32.6331 34.1953 31.3669 33.4142 30.5858L26.9258 24.0974C28.8538 21.5739 29.999 18.4204 29.999 14.9995C29.999 6.71551 23.2835 0 14.9995 0C6.71551 0 0 6.71551 0 14.9995C0 23.2835 6.71551 29.999 14.9995 29.999ZM14.9995 25.9991C21.0744 25.9991 25.9991 21.0744 25.9991 14.9995C25.9991 8.92457 21.0744 3.99987 14.9995 3.99987C8.92457 3.99987 3.99987 8.92457 3.99987 14.9995C3.99987 21.0744 8.92457 25.9991 14.9995 25.9991Z" fill="#313131"/>
</svg>
