<svg width="86" height="20" viewBox="0 0 86 20" fill="none" xmlns="http://www.w3.org/2000/svg">
<path d="M40.0971 9.07399C32.3956 14.027 20.8433 11.5505 14.4254 6.59749L14.4254 14.027C28.5448 20.2183 34.6088 18.6462 40.0971 14.027C44.8793 10.002 50.4766 5.6923 61.918 7.83562C55.5001 5.359 47.7986 4.121 40.0971 9.07399Z" fill="url(#paint0_linear_2023_1228)"/>
<path d="M26.9552 -2.47568e-06C15.403 3.77166e-05 14.1194 14.859 -1.6928e-07 3.71474L-7.89978e-07 17.3356C3.42288 19.8121 11.809 22.7839 17.9701 14.8591C25.6716 4.95311 29.9488 7.93979 41.0746 14.8591C53.3735 22.508 60.9997 20.3969 66.7463 14.8591C69.9626 11.7595 76.0934 6.38537 86 11.1443C76.7582 5.20076 69.9432 7.63578 65.4627 11.1443C62.3893 13.551 54.4554 17.8503 44.9254 9.90597C35.6836 0.990595 31.375 -1.78526e-05 26.9552 -2.47568e-06Z" fill="url(#paint1_linear_2023_1228)"/>
<path d="M26.9552 -2.47568e-06C15.403 3.77166e-05 14.1194 14.859 -1.6928e-07 3.71474L-7.89978e-07 17.3356C3.42288 19.8121 11.809 22.7839 17.9701 14.8591C25.6716 4.95311 29.9488 7.93979 41.0746 14.8591C53.3735 22.508 60.9997 20.3969 66.7463 14.8591C69.9626 11.7595 76.0934 6.38537 86 11.1443C76.7582 5.20076 69.9432 7.63578 65.4627 11.1443C62.3893 13.551 54.4554 17.8503 44.9254 9.90597C35.6836 0.990595 31.375 -1.78526e-05 26.9552 -2.47568e-06Z" fill="url(#paint2_linear_2023_1228)"/>
<defs>
<linearGradient id="paint0_linear_2023_1228" x1="88.8732" y1="7.8978" x2="2.87319" y2="7.8978" gradientUnits="userSpaceOnUse">
<stop offset="0.505208" stop-color="#A85DB1"/>
<stop offset="1" stop-color="#0E0E0E"/>
</linearGradient>
<linearGradient id="paint1_linear_2023_1228" x1="86" y1="9.96815" x2="-4.57048e-07" y2="9.96814" gradientUnits="userSpaceOnUse">
<stop offset="0.401042" stop-color="#793282"/>
<stop offset="1" stop-color="#0E0E0E"/>
</linearGradient>
<linearGradient id="paint2_linear_2023_1228" x1="134.811" y1="3.58565" x2="-20.9189" y2="3.58564" gradientUnits="userSpaceOnUse">
<stop offset="0.505208" stop-color="#A85DB1"/>
<stop offset="1" stop-color="#0E0E0E"/>
</linearGradient>
</defs>
</svg>
