<svg width="224" height="194" viewBox="0 0 224 194" fill="none" xmlns="http://www.w3.org/2000/svg">
<path d="M24.5958 51.8371C23.8839 47.0626 24.8241 44.3095 25.6416 42.981C26.4476 41.671 27.3863 41.2531 28.0581 41.1529L28.0673 41.2146L28.6287 41.1309C29.2522 41.1728 30.0402 41.4352 30.9028 42.1966C32.0722 43.2289 33.7746 45.588 34.4865 50.3625L54.2678 47.4132C53.7457 43.9114 52.8137 40.6571 51.5369 37.7155L139.337 24.6251C146.913 23.4956 149.059 24.88 149.758 25.4935C150.907 26.5013 152.677 29.3286 153.911 37.6094L167.913 131.518L187.694 128.569L173.693 34.6601C172.348 25.642 169.804 16.4816 162.955 10.4716C155.657 4.06717 146.123 3.40368 136.39 4.85485L26.8466 21.187C26.2718 21.2308 25.6929 21.2959 25.1105 21.3827C10.6956 23.5319 2.27846 37.7772 4.81443 54.7864L24.5958 51.8371Z" fill="#313131"/>
<path d="M34.4865 50.3625L54.2678 47.4132L69.0059 146.264L49.2246 149.214L41.1186 94.8455L38.7409 99.2419C31.886 111.917 12.8342 108.576 10.7097 94.3268L4.81443 54.7864L24.5958 51.8371L28.2803 76.5499L36.2059 61.8951L34.4865 50.3625Z" fill="#313131"/>
<path d="M82.2799 141.613C87.3732 134.167 97.8441 132.868 104.602 138.844L123.467 155.524L136.314 134.605C141.367 126.377 152.769 124.996 159.64 131.78L169.386 141.403L167.913 131.518L187.694 128.569L191.379 153.281C193.503 167.531 176.254 176.284 166 166.16L150.064 150.425L137.396 171.051C132.519 178.992 121.654 180.612 114.673 174.439L95.5921 157.568L80.128 180.177C72.4307 191.43 54.9196 187.411 52.9096 173.929L49.2246 149.214L69.0059 146.264L70.8122 158.38L82.2799 141.613Z" fill="#313131"/>
<path d="M68.5799 75.5939C68.1729 72.8642 70.0571 70.3213 72.7883 69.9141L142.023 59.5916C144.754 59.1844 147.298 61.0671 147.705 63.7968C148.112 66.5265 146.228 69.0695 143.497 69.4767L74.2622 79.7992C71.5309 80.2064 68.9869 78.3236 68.5799 75.5939Z" fill="#313131"/>
<path d="M75.736 89.6843C73.0047 90.0915 71.1206 92.6344 71.5275 95.3641C71.9345 98.0938 74.4785 99.9766 77.2098 99.5694L146.444 89.2469C149.176 88.8397 151.06 86.2967 150.653 83.567C150.246 80.8373 147.702 78.9546 144.971 79.3618L75.736 89.6843Z" fill="#313131"/>
<path d="M74.4752 115.134C74.0682 112.405 75.9524 109.862 78.6836 109.454L147.918 99.132C150.65 98.7248 153.194 100.608 153.601 103.337C154.008 106.067 152.123 108.61 149.392 109.017L80.1574 119.34C77.4262 119.747 74.8821 117.864 74.4752 115.134Z" fill="#313131"/>
<path d="M69.8407 50.1439C67.1095 50.5511 65.2253 53.094 65.6323 55.8237C66.0393 58.5534 68.5833 60.4362 71.3145 60.029L100.987 55.605C103.718 55.1978 105.602 52.6549 105.195 49.9252C104.788 47.1955 102.244 45.3127 99.5127 45.7199L69.8407 50.1439Z" fill="#313131"/>
<path d="M170.678 175.096L173.506 177.924L176.335 175.096L216.281 135.15L213.452 132.322L216.281 135.15C219.848 131.582 219.848 125.798 216.281 122.23C212.713 118.663 206.928 118.663 203.361 122.23L173.506 152.085L158.178 136.756C154.61 133.188 148.825 133.188 145.258 136.756L148.086 139.585L145.258 136.756C141.69 140.324 141.69 146.108 145.258 149.676L148.086 146.847L145.258 149.676L170.678 175.096Z" fill="#A84FB4" stroke="#313131" stroke-width="8" stroke-linecap="round"/>
</svg>
