<svg width="60" height="60" viewBox="0 0 60 60" fill="none" xmlns="http://www.w3.org/2000/svg">
<path d="M26.4706 21.1641C25.5705 21.1617 24.6712 20.8171 23.9845 20.1304C22.6062 18.7521 22.6062 16.5174 23.9845 15.1391L27.5043 11.6192C28.8827 10.2409 31.1174 10.2409 32.4957 11.6192C33.1851 12.3086 33.5296 13.2122 33.5294 14.1157V28.2353C35.4787 28.2353 37.0588 29.8155 37.0588 31.7647C37.0588 33.7139 35.4787 35.2941 33.5294 35.2941H26.4706C24.5214 35.2941 22.9412 33.7139 22.9412 31.7647C22.9412 29.8155 24.5214 28.2353 26.4706 28.2353V21.1641Z" fill="#0E0E0E"/>
<path fill-rule="evenodd" clip-rule="evenodd" d="M52.9412 22.9412C52.9412 31.0631 48.7206 38.1992 42.353 42.2759V60L30 54.7059L17.6471 60V42.2759C11.2795 38.1992 7.05884 31.0631 7.05884 22.9412C7.05884 10.2711 17.33 0 30 0C42.6701 0 52.9412 10.2711 52.9412 22.9412ZM30 38.8235C38.7716 38.8235 45.8824 31.7128 45.8824 22.9412C45.8824 14.1696 38.7716 7.05882 30 7.05882C21.2284 7.05882 14.1177 14.1696 14.1177 22.9412C14.1177 31.7128 21.2284 38.8235 30 38.8235ZM30 45.8824C31.8221 45.8824 33.5946 45.6699 35.2941 45.2685V49.295L30 47.0261L24.7059 49.295V45.2685C26.4054 45.6699 28.1779 45.8824 30 45.8824Z" fill="#0E0E0E"/>
</svg>
