<svg width="18" height="18" viewBox="0 0 18 18" fill="none" xmlns="http://www.w3.org/2000/svg">
<path d="M9.52942 7.41177C9.52942 6.82699 10.0035 6.35294 10.5882 6.35294C11.173 6.35294 11.6471 6.82699 11.6471 7.41177V13.7647C11.6471 14.3495 11.173 14.8235 10.5882 14.8235C10.0035 14.8235 9.52942 14.3495 9.52942 13.7647V7.41177Z" fill="#D90000"/>
<path d="M6.35295 7.41177C6.35295 6.82699 6.827 6.35294 7.41177 6.35294C7.99654 6.35294 8.4706 6.82699 8.4706 7.41177V13.7647C8.4706 14.3495 7.99654 14.8235 7.41177 14.8235C6.827 14.8235 6.35295 14.3495 6.35295 13.7647V7.41177Z" fill="#D90000"/>
<path fill-rule="evenodd" clip-rule="evenodd" d="M9.00001 0C10.7543 0 12.1765 1.42215 12.1765 3.17647H16.4118C16.9965 3.17647 17.4706 3.65052 17.4706 4.23529C17.4706 4.82007 16.9965 5.29412 16.4118 5.29412L15.5238 5.29412L14.572 15.1295C14.4144 16.7577 13.0461 18 11.4103 18H6.58984C4.95403 18 3.5857 16.7577 3.42814 15.1295L2.47633 5.29412H1.58824C1.00347 5.29412 0.529419 4.82007 0.529419 4.23529C0.529419 3.65052 1.00347 3.17647 1.58824 3.17647L5.82354 3.17647C5.82354 1.42215 7.24569 0 9.00001 0ZM7.94118 3.17647H10.0588C10.0588 2.5917 9.58478 2.11765 9.00001 2.11765C8.41524 2.11765 7.94118 2.5917 7.94118 3.17647ZM13.3962 5.29412H4.60387L5.53594 14.9255C5.58846 15.4683 6.04457 15.8824 6.58984 15.8824H11.4103C11.9555 15.8824 12.4116 15.4683 12.4642 14.9255L13.3962 5.29412Z" fill="#D90000"/>
</svg>
